<svg width="118" height="92" viewBox="0 0 118 92" fill="none" xmlns="http://www.w3.org/2000/svg">
<path d="M4.526 14.801C3.32733 14.9663 2.33533 15.049 1.55 15.049C1.28133 15.049 1.147 14.9457 1.147 14.739C1.147 14.2637 1.46733 13.7677 2.108 13.251C2.76933 12.7137 3.83367 12.2487 5.301 11.856C5.96233 9.5 6.71667 7.34033 7.564 5.377C5.49733 5.48033 3.80267 6.16233 2.48 7.423C2.14933 7.75367 1.88067 8.012 1.674 8.198C1.46733 8.384 1.28133 8.477 1.116 8.477C0.971333 8.477 0.826667 8.353 0.682 8.105C0.537333 7.857 0.465 7.52633 0.465 7.113C0.485667 5.52167 1.56033 4.23 3.689 3.238C5.81767 2.246 8.44233 1.76033 11.563 1.781L20.863 1.936C21.421 1.936 21.7 2.153 21.7 2.587C21.7 2.711 21.6173 2.93833 21.452 3.269C21.2867 3.579 21.142 3.92 21.018 4.292C20.7493 5.036 20.1707 5.408 19.282 5.408H18.29L14.167 5.377H11.78C11.6147 6.555 11.1187 8.477 10.292 11.143L15.965 11.236C16.2957 11.236 16.461 11.4323 16.461 11.825C16.461 11.949 16.4093 12.166 16.306 12.476C16.2027 12.786 16.1097 13.1063 16.027 13.437C15.8617 14.119 15.5103 14.46 14.973 14.46L10.261 14.243H9.858C9.734 14.243 9.58933 14.2533 9.424 14.274C8.34933 18.2213 7.812 21.342 7.812 23.636C7.812 24.8553 6.62367 25.465 4.247 25.465C3.73033 25.465 3.42033 25.2067 3.317 24.69C3.23433 24.1527 3.193 23.45 3.193 22.582C3.193 20.722 3.63733 18.1283 4.526 14.801ZM36.4025 17.684C36.7745 17.684 36.9605 18.1593 36.9605 19.11C36.9605 19.6267 36.7435 20.257 36.3095 21.001C35.8755 21.7243 35.3071 22.396 34.6045 23.016C33.9225 23.6153 33.1578 24.1113 32.3105 24.504C31.4631 24.8967 30.6365 25.093 29.8305 25.093C28.7351 25.093 28.0015 24.132 27.6295 22.21C27.0921 23.0987 26.3895 23.8323 25.5215 24.411C24.6535 24.969 23.4858 25.248 22.0185 25.248C20.5718 25.248 19.4041 24.7933 18.5155 23.884C17.6268 22.9747 17.1928 21.869 17.2135 20.567C17.2135 17.0537 18.3811 14.2843 20.7165 12.259C21.7085 11.4117 22.6281 10.8537 23.4755 10.585C24.3435 10.3163 25.2528 10.182 26.2035 10.182C27.1541 10.182 27.9291 10.3473 28.5285 10.678C28.8178 10.0787 29.1485 9.779 29.5205 9.779C30.2438 9.779 30.9258 10.0993 31.5665 10.74C32.2278 11.36 32.5585 11.949 32.5585 12.507C32.2691 13.189 31.8455 14.0053 31.2875 14.956C31.1221 15.9067 31.0395 17.2397 31.0395 18.955C31.0395 20.6703 31.2565 21.528 31.6905 21.528C32.2278 21.528 33.5298 20.4533 35.5965 18.304C35.9685 17.8907 36.2371 17.684 36.4025 17.684ZM21.7705 19.544C21.7705 21.1353 22.3595 21.931 23.5375 21.931C24.7981 21.9103 25.8418 21.2387 26.6685 19.916C26.9578 19.4613 27.1955 18.9033 27.3815 18.242C27.3815 15.9273 27.5881 13.9433 28.0015 12.29C26.3275 12.6207 24.8705 13.4267 23.6305 14.708C22.3905 15.9893 21.7705 17.6013 21.7705 19.544ZM42.4794 9.996C43.8641 9.97533 44.8974 10.2337 45.5794 10.771C46.2614 11.2877 46.6024 12.042 46.6024 13.034C46.6024 14.0053 46.3028 14.8423 45.7034 15.545C45.1248 16.227 44.4118 16.7127 43.5644 17.002C44.1638 17.622 44.7011 18.2523 45.1764 18.893C45.6724 19.5337 45.9204 20.2053 45.9204 20.908C45.9204 22.2927 45.3728 23.3673 44.2774 24.132C43.1821 24.876 41.6528 25.248 39.6894 25.248C37.7468 25.248 36.2898 24.8657 35.3184 24.101C34.3471 23.3157 33.8614 22.4373 33.8614 21.466C33.8614 20.474 34.0991 19.575 34.5744 18.769C35.0704 17.963 35.5974 17.56 36.1554 17.56C36.4861 17.56 36.7238 17.684 36.8684 17.932C37.0131 18.1593 37.2818 18.8413 37.6744 19.978C37.8191 20.3913 38.0568 20.784 38.3874 21.156C39.1521 22.0033 40.3611 22.427 42.0144 22.427C41.7664 21.6417 41.3634 20.97 40.8054 20.412C40.2681 19.8333 39.7308 19.2753 39.1934 18.738C38.6561 18.2007 38.1808 17.6323 37.7674 17.033C37.3541 16.413 37.1474 15.6897 37.1474 14.863C37.1474 13.375 37.7054 12.166 38.8214 11.236C39.8754 10.4093 41.0948 9.996 42.4794 9.996ZM42.3554 15.731C43.1821 14.8423 43.5954 14.1293 43.5954 13.592C43.5954 13.344 43.5024 13.127 43.3164 12.941C43.1511 12.7343 42.9031 12.631 42.5724 12.631C42.2418 12.631 41.9214 12.6723 41.6114 12.755C41.3221 12.8377 41.0844 12.8997 40.8984 12.941C40.8984 13.7263 41.3841 14.6563 42.3554 15.731ZM58.1768 14.584C58.1768 13.84 57.7325 13.468 56.8438 13.468C55.9758 13.468 55.1182 14.15 54.2708 15.514C53.4235 16.8573 52.8965 18.2317 52.6898 19.637C52.7312 20.1123 52.7725 20.5877 52.8138 21.063C52.8552 21.5383 52.8758 22.0033 52.8758 22.458C52.8758 23.5533 52.5142 24.2973 51.7908 24.69C51.4602 24.876 51.1398 25.0517 50.8298 25.217C50.5405 25.3823 50.1995 25.465 49.8068 25.465C49.4142 25.465 49.0628 25.2067 48.7528 24.69C48.4635 24.1527 48.3188 23.326 48.3188 22.21C48.3188 19.0893 48.5462 16.382 49.0008 14.088C49.7035 10.5333 51.0985 6.73067 53.1858 2.68C53.4752 2.122 53.8988 1.85333 54.4568 1.874C55.0148 1.874 55.4695 2.25633 55.8208 3.021C56.1722 3.78567 56.3375 4.42633 56.3168 4.943C56.3168 5.45967 56.2342 5.966 56.0688 6.462C55.9242 6.93733 55.7278 7.41267 55.4798 7.888C55.2525 8.34267 54.9838 8.818 54.6738 9.314C54.3845 9.78933 54.0952 10.306 53.8058 10.864L53.3408 13.096C54.1468 11.7527 55.2318 10.8537 56.5958 10.399C57.0918 10.2337 57.6395 10.151 58.2388 10.151C59.6442 10.151 60.7085 10.4713 61.4318 11.112C62.1552 11.732 62.5168 12.6207 62.5168 13.778C62.5168 14.9147 62.3618 16.072 62.0518 17.25C61.7625 18.428 61.5455 19.2753 61.4008 19.792C61.2768 20.288 61.2148 20.7013 61.2148 21.032C61.2148 21.3627 61.3285 21.528 61.5558 21.528C61.8658 21.528 62.2482 21.3317 62.7028 20.939C63.1575 20.5463 63.6122 20.1227 64.0668 19.668C64.5215 19.1927 64.9348 18.7587 65.3068 18.366C65.6995 17.9733 65.9682 17.777 66.1128 17.777C66.4022 17.777 66.5468 18.1283 66.5468 18.831C66.5468 20.2777 65.8338 21.6727 64.4078 23.016C62.0105 24.4213 60.4812 25.124 59.8198 25.124C59.7578 25.124 59.7165 25.1137 59.6958 25.093C58.0425 25.093 57.2158 23.7703 57.2158 21.125C57.2158 19.9883 57.3192 18.9447 57.5258 17.994C57.7532 17.0433 57.9185 16.351 58.0218 15.917C58.1252 15.483 58.1768 15.0387 58.1768 14.584ZM68.7086 25.093C66.6419 25.093 65.6086 23.1607 65.6086 19.296C65.6086 17.188 65.8669 15.2763 66.3836 13.561C67.1896 10.9157 68.0989 9.593 69.1116 9.593C69.7109 9.593 70.1863 9.996 70.5376 10.802C70.8269 11.422 70.9613 12.0317 70.9406 12.631C70.9406 13.4577 70.6926 14.9147 70.1966 17.002C69.7213 18.8207 69.4836 19.947 69.4836 20.381C69.4836 20.815 69.5869 21.1147 69.7936 21.28C70.0209 21.4453 70.2793 21.528 70.5686 21.528C70.8786 21.528 71.2609 21.3317 71.7156 20.939C72.1703 20.5463 72.6249 20.1227 73.0796 19.668C73.5343 19.1927 73.9476 18.7587 74.3196 18.366C74.7123 17.9733 74.9809 17.777 75.1256 17.777C75.4149 17.777 75.5596 18.1283 75.5596 18.831C75.5596 20.2777 74.8259 21.6933 73.3586 23.078C71.9119 24.442 70.3619 25.1137 68.7086 25.093ZM69.9796 7.082C69.4216 6.25533 69.1426 5.36667 69.1426 4.416C69.1426 3.46533 69.2873 2.68 69.5766 2.06C69.8866 1.41933 70.1759 0.954332 70.4446 0.664999C70.7133 0.354999 71.0233 0.2 71.3746 0.2C71.9533 0.2 72.4803 0.634 72.9556 1.502C73.4309 2.34933 73.6686 3.06233 73.6686 3.641C73.6686 4.71567 73.2863 5.563 72.5216 6.183C71.7776 6.78233 70.9303 7.082 69.9796 7.082ZM86.5341 22.365C84.9014 24.287 82.9381 25.248 80.6441 25.248C78.3707 25.248 76.6657 24.6693 75.5291 23.512C74.3924 22.334 73.8344 20.877 73.8551 19.141C73.8344 16.6817 74.6094 14.5633 76.1801 12.786C77.7507 11.0087 79.8071 10.12 82.3491 10.12C83.5064 10.12 84.4364 10.2647 85.1391 10.554C86.3584 11.05 86.9681 11.515 86.9681 11.949C86.9681 12.2797 86.1104 12.4553 84.3951 12.476C82.7004 12.476 81.2744 13.065 80.1171 14.243C78.9804 15.4003 78.4121 16.8677 78.4121 18.645C78.4121 19.575 78.6807 20.3603 79.2181 21.001C79.7761 21.621 80.5511 21.931 81.5431 21.931C82.5557 21.931 83.3927 21.7243 84.0541 21.311C82.5867 20.319 81.8531 18.8827 81.8531 17.002C81.8324 16.01 82.1837 15.111 82.9071 14.305C83.6511 13.4783 84.5914 13.065 85.7281 13.065C86.8854 13.0443 87.7121 13.3543 88.2081 13.995C88.7041 14.6357 88.9521 15.4623 88.9521 16.475C88.9521 17.467 88.7144 18.521 88.2391 19.637H88.4251C89.3344 19.6163 90.1197 19.296 90.7811 18.676C91.0291 18.428 91.2357 18.211 91.4011 18.025C91.5871 17.839 91.7731 17.746 91.9591 17.746C92.2484 17.746 92.3931 18.087 92.3931 18.769C92.3931 20.0297 92.0211 20.9803 91.2771 21.621C90.5331 22.241 89.7064 22.551 88.7971 22.551C87.9084 22.551 87.1541 22.489 86.5341 22.365ZM86.2551 18.769C86.6064 18.025 86.7821 17.3017 86.7821 16.599C86.7821 15.8963 86.5547 15.545 86.1001 15.545C85.9141 15.545 85.7591 15.6793 85.6351 15.948C85.5111 16.2167 85.4491 16.475 85.4491 16.723C85.4491 17.5497 85.7177 18.2317 86.2551 18.769ZM94.9651 9.531C95.7091 9.531 96.4118 10.244 97.0731 11.67C98.0444 10.6573 99.2431 10.151 100.669 10.151C102.116 10.151 103.201 10.4713 103.924 11.112C104.647 11.732 105.009 12.6207 105.009 13.778C105.009 14.9147 104.854 16.072 104.544 17.25C104.255 18.428 104.038 19.2753 103.893 19.792C103.769 20.288 103.707 20.7013 103.707 21.032C103.707 21.3627 103.821 21.528 104.048 21.528C104.358 21.528 104.74 21.3317 105.195 20.939C105.65 20.5463 106.104 20.1227 106.559 19.668C107.014 19.1927 107.427 18.7587 107.799 18.366C108.192 17.9733 108.46 17.777 108.605 17.777C108.894 17.777 109.039 18.1283 109.039 18.831C109.039 20.2777 108.326 21.6727 106.9 23.016C104.503 24.4213 102.973 25.124 102.312 25.124C102.25 25.124 102.209 25.1137 102.188 25.093C100.535 25.093 99.7081 23.7703 99.7081 21.125C99.7081 19.9883 99.8114 18.9447 100.018 17.994C100.245 17.0433 100.411 16.351 100.514 15.917C100.617 15.483 100.669 15.0387 100.669 14.584C100.669 13.84 100.235 13.468 99.3671 13.468C98.5198 13.468 97.7034 14.1087 96.9181 15.39C96.1534 16.6507 95.6368 17.963 95.3681 19.327V19.544C95.3681 20.2467 95.4714 20.97 95.6781 21.714C95.9054 22.458 96.0191 22.9747 96.0191 23.264C96.0191 23.9667 95.1408 24.659 93.3841 25.341C93.1154 25.4443 92.8778 25.496 92.6711 25.496C92.1544 25.496 91.7928 25.2273 91.5861 24.69C91.4001 24.1527 91.3071 23.3157 91.3071 22.179C91.3071 19.2443 91.4208 17.126 91.6481 15.824C91.9581 13.8813 92.6608 12.073 93.7561 10.399C94.1281 9.82033 94.5311 9.531 94.9651 9.531ZM9.951 56.636C9.951 57.8553 8.76267 58.465 6.386 58.465C5.86933 58.465 5.55933 58.2067 5.456 57.69C5.37333 57.1527 5.332 56.4913 5.332 55.706C5.332 54.9207 5.38367 54.0837 5.487 53.195C5.611 52.2857 5.766 51.304 5.952 50.25C6.30333 48.2247 6.79933 46.0443 7.44 43.709C8.10133 41.353 8.75233 39.5343 9.393 38.253C8.091 38.3357 6.79933 38.5733 5.518 38.966C4.23667 39.338 3.32733 39.6067 2.79 39.772C2.25267 39.9167 1.80833 39.989 1.457 39.989C1.10567 39.989 0.93 39.8753 0.93 39.648C0.93 39.3793 1.13667 38.9867 1.55 38.47C1.96333 37.9327 2.55233 37.3953 3.317 36.858C5.25967 35.5353 7.41933 34.8637 9.796 34.843L19.995 34.936C20.553 34.936 20.832 35.153 20.832 35.587C20.832 35.711 20.7493 35.9383 20.584 36.269C20.4187 36.579 20.274 36.92 20.15 37.292C19.8813 38.036 19.313 38.408 18.445 38.408C17.5977 38.408 15.562 38.346 12.338 38.222C12.2553 39.1313 12.09 40.299 11.842 41.725C11.594 43.1303 11.3253 44.67 11.036 46.344C10.3333 50.622 9.97167 54.0527 9.951 56.636ZM21.7545 58.093C19.6878 58.093 18.6545 56.1607 18.6545 52.296C18.6545 50.188 18.9128 48.2763 19.4295 46.561C20.2355 43.9157 21.1448 42.593 22.1575 42.593C22.7568 42.593 23.2322 42.996 23.5835 43.802C23.8728 44.422 24.0072 45.0317 23.9865 45.631C23.9865 46.4577 23.7385 47.9147 23.2425 50.002C22.7672 51.8207 22.5295 52.947 22.5295 53.381C22.5295 53.815 22.6328 54.1147 22.8395 54.28C23.0668 54.4453 23.3252 54.528 23.6145 54.528C23.9245 54.528 24.3068 54.3317 24.7615 53.939C25.2162 53.5463 25.6708 53.1227 26.1255 52.668C26.5802 52.1927 26.9935 51.7587 27.3655 51.366C27.7582 50.9733 28.0268 50.777 28.1715 50.777C28.4608 50.777 28.6055 51.1283 28.6055 51.831C28.6055 53.2777 27.8718 54.6933 26.4045 56.078C24.9578 57.442 23.4078 58.1137 21.7545 58.093ZM23.0255 40.082C22.4675 39.2553 22.1885 38.3667 22.1885 37.416C22.1885 36.4653 22.3332 35.68 22.6225 35.06C22.9325 34.4193 23.2218 33.9543 23.4905 33.665C23.7592 33.355 24.0692 33.2 24.4205 33.2C24.9992 33.2 25.5262 33.634 26.0015 34.502C26.4768 35.3493 26.7145 36.0623 26.7145 36.641C26.7145 37.7157 26.3322 38.563 25.5675 39.183C24.8235 39.7823 23.9762 40.082 23.0255 40.082ZM44.044 48.576C44.044 47.894 43.6513 47.553 42.866 47.553C42.3286 47.553 41.7293 48.08 41.068 49.134C40.4066 50.1673 39.9313 51.2833 39.642 52.482V52.544C39.642 53.2467 39.7453 53.97 39.952 54.714C40.1793 55.458 40.293 55.9747 40.293 56.264C40.293 56.9667 39.4146 57.659 37.658 58.341C37.3893 58.4443 37.1516 58.496 36.945 58.496C36.4283 58.496 36.0666 58.2273 35.86 57.69C35.674 57.1527 35.581 56.4293 35.581 55.52C35.581 54.59 35.6016 53.722 35.643 52.916C35.705 52.0893 35.7566 51.335 35.798 50.653C35.86 49.9503 35.9116 49.3407 35.953 48.824C36.015 48.2867 36.046 47.8527 36.046 47.522C36.046 46.8193 35.7256 46.468 35.085 46.468C34.4443 46.468 33.7003 47.2223 32.853 48.731C32.0056 50.219 31.582 51.4073 31.582 52.296C31.582 53.164 31.6853 53.97 31.892 54.714C32.1193 55.458 32.233 55.9747 32.233 56.264C32.233 56.9667 31.3546 57.659 29.598 58.341C29.3293 58.4443 29.0916 58.496 28.885 58.496C28.3683 58.496 28.0066 58.2273 27.8 57.69C27.614 57.1527 27.521 56.326 27.521 55.21C27.521 52.2753 27.6346 50.157 27.862 48.855C28.172 46.933 28.8746 45.1143 29.97 43.399C30.342 42.8203 30.745 42.531 31.179 42.531C31.861 42.531 32.4913 43.089 33.07 44.205C33.2353 44.4943 33.3593 44.763 33.442 45.011C34.434 43.771 35.6016 43.151 36.945 43.151C37.8336 43.151 38.6293 43.4507 39.332 44.05C40.0346 44.6287 40.386 45.3623 40.386 46.251V46.592C41.6466 45.0213 43.1863 44.236 45.005 44.236C46.121 44.236 46.9683 44.5253 47.547 45.104C48.1256 45.6827 48.415 46.3957 48.415 47.243C48.415 48.0903 48.353 48.855 48.229 49.537C48.105 50.219 47.9603 50.8597 47.795 51.459C47.6503 52.0583 47.516 52.5957 47.392 53.071C47.268 53.5257 47.206 53.8873 47.206 54.156C47.206 54.404 47.2886 54.528 47.454 54.528C47.764 54.528 48.1463 54.3317 48.601 53.939C49.0556 53.5463 49.5103 53.1227 49.965 52.668C50.4196 52.1927 50.833 51.7587 51.205 51.366C51.5976 50.9733 51.8663 50.777 52.011 50.777C52.3003 50.777 52.445 51.1283 52.445 51.831C52.445 53.2777 51.7113 54.683 50.244 56.047C48.7973 57.411 47.2473 58.093 45.594 58.093C44.106 58.093 43.362 56.7393 43.362 54.032C43.362 53.35 43.4756 52.4097 43.703 51.211C43.9303 50.0123 44.044 49.134 44.044 48.576ZM58.1042 54.621C59.7162 54.621 61.2765 53.9803 62.7852 52.699C63.3432 52.2237 63.7978 51.7897 64.1492 51.397C64.5005 50.9837 64.7692 50.777 64.9552 50.777C65.2445 50.777 65.3892 51.0663 65.3892 51.645C65.3892 52.2237 65.2342 52.8747 64.9242 53.598C64.6142 54.3007 64.0975 54.993 63.3742 55.675C61.5968 57.349 59.1582 58.186 56.0582 58.186C53.5988 58.186 51.9248 57.2973 51.0362 55.52C50.7262 54.9 50.5712 54.0113 50.5712 52.854C50.5712 51.6967 50.7985 50.498 51.2532 49.258C51.7078 47.9973 52.3072 46.9123 53.0512 46.003C53.8158 45.0937 54.6942 44.391 55.6862 43.895C56.6782 43.3783 57.7322 43.12 58.8482 43.12C59.9848 43.12 60.8528 43.399 61.4522 43.957C62.0722 44.515 62.3822 45.2383 62.3822 46.127C62.3822 47.0157 62.1548 47.7493 61.7002 48.328C61.2662 48.886 60.6978 49.3613 59.9952 49.754C59.2925 50.126 58.5072 50.467 57.6392 50.777C56.7918 51.0663 55.9548 51.397 55.1282 51.769V52.544C55.1488 53.288 55.4588 53.815 56.0582 54.125C56.6575 54.435 57.3395 54.6003 58.1042 54.621ZM57.5772 45.879C56.5025 45.879 55.7585 47.1293 55.3452 49.63C55.7792 49.3407 56.1822 49.0823 56.5542 48.855C56.9468 48.6277 57.2878 48.4107 57.5772 48.204C58.1972 47.7493 58.5175 47.2327 58.5382 46.654C58.5382 46.1373 58.2178 45.879 57.5772 45.879ZM31.434 83.684C31.7853 83.684 31.961 84.1593 31.961 85.11C31.961 85.6267 31.744 86.257 31.31 87.001C30.876 87.7243 30.3077 88.396 29.605 89.016C28.923 89.6153 28.1583 90.1113 27.311 90.504C26.4637 90.8967 25.5647 91.093 24.614 91.093C23.684 91.093 22.9503 90.7933 22.413 90.194C21.8963 89.574 21.638 88.892 21.638 88.148C21.638 87.3833 21.762 86.5257 22.01 85.575C22.258 84.6243 22.5267 83.6323 22.816 82.599C23.6013 79.8503 24.0043 77.918 24.025 76.802C24.025 76.3267 23.963 75.965 23.839 75.717C23.715 75.4483 23.4773 75.314 23.126 75.314C22.506 75.314 21.8447 75.686 21.142 76.43C20.4393 77.174 19.778 78.1247 19.158 79.282C17.732 81.9273 16.9777 84.5107 16.895 87.032C16.9363 87.3213 16.9777 87.6107 17.019 87.9C17.0603 88.1893 17.081 88.4993 17.081 88.83C17.081 89.4913 16.7503 90.101 16.089 90.659C15.4483 91.1963 14.725 91.465 13.919 91.465C13.4437 91.465 13.0923 91.2377 12.865 90.783C12.6377 90.3077 12.524 89.729 12.524 89.047C12.524 88.365 12.679 87.435 12.989 86.257C13.299 85.079 13.64 83.8287 14.012 82.506C15.004 79.0133 15.5103 76.4093 15.531 74.694C15.531 73.826 15.4173 73.144 15.19 72.648C14.9833 72.152 14.57 71.904 13.95 71.904C12.834 71.904 11.7283 72.6997 10.633 74.291C9.53767 75.8823 8.556 78.352 7.688 81.7C7.46067 82.568 7.285 83.3223 7.161 83.963L7.13 84.552C7.52267 86.4533 7.719 87.6933 7.719 88.272C7.719 89.4707 7.29533 90.2767 6.448 90.69C6.05533 90.876 5.673 91.0517 5.301 91.217C4.94967 91.3823 4.56733 91.465 4.154 91.465C3.12067 91.465 2.604 90.4833 2.604 88.52C2.604 86.536 3.15167 82.6713 4.247 76.926C4.63967 74.8593 4.836 73.702 4.836 73.454C4.836 71.78 4.41233 70.943 3.565 70.943C3.27567 70.943 3.007 71.0257 2.759 71.191C2.53167 71.3563 2.294 71.532 2.046 71.718C1.81867 71.904 1.581 72.0797 1.333 72.245C1.085 72.4103 0.795667 72.493 0.465 72.493C0.155 72.493 0 72.214 0 71.656C0 70.5193 0.527 69.5893 1.581 68.866C2.59367 68.122 3.82333 67.75 5.27 67.75C7.13 67.75 8.22533 68.618 8.556 70.354C8.63867 70.8707 8.70067 71.4183 8.742 71.997C10.2713 69.1243 12.2037 67.688 14.539 67.688C17.081 67.688 18.538 68.9073 18.91 71.346C19.034 72.0487 19.0857 72.803 19.065 73.609V73.857C20.4083 71.997 21.9997 71.067 23.839 71.067C26.443 71.067 27.745 72.6377 27.745 75.779C27.745 77.143 27.528 78.7447 27.094 80.584C26.6807 82.4027 26.3707 83.715 26.164 84.521C25.978 85.3063 25.885 85.916 25.885 86.35C25.885 87.1353 26.1537 87.528 26.691 87.528C27.249 87.528 28.5613 86.4533 30.628 84.304C31 83.8907 31.2687 83.684 31.434 83.684ZM49.4503 83.684C49.8223 83.684 50.0083 84.1593 50.0083 85.11C50.0083 85.6267 49.7913 86.257 49.3573 87.001C48.9233 87.7243 48.355 88.396 47.6523 89.016C46.9703 89.6153 46.2057 90.1113 45.3583 90.504C44.511 90.8967 43.6843 91.093 42.8783 91.093C41.783 91.093 41.0493 90.132 40.6773 88.21C40.14 89.0987 39.4373 89.8323 38.5693 90.411C37.7013 90.969 36.5337 91.248 35.0663 91.248C33.6197 91.248 32.452 90.7933 31.5633 89.884C30.6747 88.9747 30.2407 87.869 30.2613 86.567C30.2613 83.0537 31.429 80.2843 33.7643 78.259C34.7563 77.4117 35.676 76.8537 36.5233 76.585C37.3913 76.3163 38.3007 76.182 39.2513 76.182C40.202 76.182 40.977 76.3473 41.5763 76.678C41.8657 76.0787 42.1963 75.779 42.5683 75.779C43.2917 75.779 43.9737 76.0993 44.6143 76.74C45.2757 77.36 45.6063 77.949 45.6063 78.507C45.317 79.189 44.8933 80.0053 44.3353 80.956C44.17 81.9067 44.0873 83.2397 44.0873 84.955C44.0873 86.6703 44.3043 87.528 44.7383 87.528C45.2757 87.528 46.5777 86.4533 48.6443 84.304C49.0163 83.8907 49.285 83.684 49.4503 83.684ZM34.8183 85.544C34.8183 87.1353 35.4073 87.931 36.5853 87.931C37.846 87.9103 38.8897 87.2387 39.7163 85.916C40.0057 85.4613 40.2433 84.9033 40.4293 84.242C40.4293 81.9273 40.636 79.9433 41.0493 78.29C39.3753 78.6207 37.9183 79.4267 36.6783 80.708C35.4383 81.9893 34.8183 83.6013 34.8183 85.544ZM60.7663 83.684C61.1383 83.684 61.3243 84.0043 61.3243 84.645C61.3243 85.265 61.159 85.9367 60.8283 86.66C60.5183 87.3833 60.0326 88.086 59.3713 88.768C58.7306 89.4293 57.904 89.9977 56.8913 90.473C55.8786 90.9483 54.68 91.186 53.2953 91.186C51.9313 91.186 50.7326 90.783 49.6993 89.977C48.666 89.1503 48.1493 87.9723 48.1493 86.443C48.1493 84.893 48.387 83.498 48.8623 82.258C49.3583 80.9973 49.999 79.9123 50.7843 79.003C51.5903 78.0937 52.4996 77.391 53.5123 76.895C54.525 76.3783 55.486 76.12 56.3953 76.12C57.9866 76.12 58.7823 76.7503 58.7823 78.011C58.7823 78.7343 58.6273 79.313 58.3173 79.747C58.028 80.181 57.7283 80.398 57.4183 80.398C57.005 80.398 56.6433 80.2533 56.3333 79.964C56.0233 79.6747 55.6823 79.53 55.3103 79.53C54.9383 79.5093 54.5766 79.685 54.2253 80.057C53.8946 80.429 53.6156 80.9043 53.3883 81.483C52.9336 82.6403 52.7063 83.994 52.7063 85.544C52.727 86.288 53.068 86.846 53.7293 87.218C54.184 87.466 54.7213 87.6003 55.3413 87.621C55.9613 87.621 56.5503 87.4143 57.1083 87.001C57.687 86.5877 58.214 86.1433 58.6893 85.668C59.1646 85.172 59.578 84.7173 59.9293 84.304C60.3013 83.8907 60.5803 83.684 60.7663 83.684ZM70.1046 80.584C70.1046 79.84 69.6602 79.468 68.7716 79.468C67.9036 79.468 67.0459 80.15 66.1986 81.514C65.3512 82.8573 64.8242 84.2317 64.6176 85.637C64.6589 86.1123 64.7002 86.5877 64.7416 87.063C64.7829 87.5383 64.8036 88.0033 64.8036 88.458C64.8036 89.5533 64.4419 90.2973 63.7186 90.69C63.3879 90.876 63.0676 91.0517 62.7576 91.217C62.4682 91.3823 62.1272 91.465 61.7346 91.465C61.3419 91.465 60.9906 91.2067 60.6806 90.69C60.3912 90.1527 60.2466 89.326 60.2466 88.21C60.2466 85.0893 60.4739 82.382 60.9286 80.088C61.6312 76.5333 63.0262 72.7307 65.1136 68.68C65.4029 68.122 65.8266 67.8533 66.3846 67.874C66.9426 67.874 67.3972 68.2563 67.7486 69.021C68.0999 69.7857 68.2652 70.4263 68.2446 70.943C68.2446 71.4597 68.1619 71.966 67.9966 72.462C67.8519 72.9373 67.6556 73.4127 67.4076 73.888C67.1802 74.3427 66.9116 74.818 66.6016 75.314C66.3122 75.7893 66.0229 76.306 65.7336 76.864L65.2686 79.096C66.0746 77.7527 67.1596 76.8537 68.5236 76.399C69.0196 76.2337 69.5672 76.151 70.1666 76.151C71.5719 76.151 72.6362 76.4713 73.3596 77.112C74.0829 77.732 74.4446 78.6207 74.4446 79.778C74.4446 80.9147 74.2896 82.072 73.9796 83.25C73.6902 84.428 73.4732 85.2753 73.3286 85.792C73.2046 86.288 73.1426 86.7013 73.1426 87.032C73.1426 87.3627 73.2562 87.528 73.4836 87.528C73.7936 87.528 74.1759 87.3317 74.6306 86.939C75.0852 86.5463 75.5399 86.1227 75.9946 85.668C76.4492 85.1927 76.8626 84.7587 77.2346 84.366C77.6272 83.9733 77.8959 83.777 78.0406 83.777C78.3299 83.777 78.4746 84.1283 78.4746 84.831C78.4746 86.2777 77.7616 87.6727 76.3356 89.016C73.9382 90.4213 72.4089 91.124 71.7476 91.124C71.6856 91.124 71.6442 91.1137 71.6236 91.093C69.9702 91.093 69.1436 89.7703 69.1436 87.125C69.1436 85.9883 69.2469 84.9447 69.4536 83.994C69.6809 83.0433 69.8462 82.351 69.9496 81.917C70.0529 81.483 70.1046 81.0387 70.1046 80.584ZM80.6363 91.093C78.5697 91.093 77.5363 89.1607 77.5363 85.296C77.5363 83.188 77.7947 81.2763 78.3113 79.561C79.1173 76.9157 80.0267 75.593 81.0393 75.593C81.6387 75.593 82.114 75.996 82.4653 76.802C82.7547 77.422 82.889 78.0317 82.8683 78.631C82.8683 79.4577 82.6203 80.9147 82.1243 83.002C81.649 84.8207 81.4113 85.947 81.4113 86.381C81.4113 86.815 81.5147 87.1147 81.7213 87.28C81.9487 87.4453 82.207 87.528 82.4963 87.528C82.8063 87.528 83.1887 87.3317 83.6433 86.939C84.098 86.5463 84.5527 86.1227 85.0073 85.668C85.462 85.1927 85.8753 84.7587 86.2473 84.366C86.64 83.9733 86.9087 83.777 87.0533 83.777C87.3427 83.777 87.4873 84.1283 87.4873 84.831C87.4873 86.2777 86.7537 87.6933 85.2863 89.078C83.8397 90.442 82.2897 91.1137 80.6363 91.093ZM81.9073 73.082C81.3493 72.2553 81.0703 71.3667 81.0703 70.416C81.0703 69.4653 81.215 68.68 81.5043 68.06C81.8143 67.4193 82.1037 66.9543 82.3723 66.665C82.641 66.355 82.951 66.2 83.3023 66.2C83.881 66.2 84.408 66.634 84.8833 67.502C85.3587 68.3493 85.5963 69.0623 85.5963 69.641C85.5963 70.7157 85.214 71.563 84.4493 72.183C83.7053 72.7823 82.858 73.082 81.9073 73.082ZM90.0608 75.531C90.8048 75.531 91.5075 76.244 92.1688 77.67C93.1401 76.6573 94.3388 76.151 95.7648 76.151C97.2115 76.151 98.2965 76.4713 99.0198 77.112C99.7431 77.732 100.105 78.6207 100.105 79.778C100.105 80.9147 99.9498 82.072 99.6398 83.25C99.3505 84.428 99.1335 85.2753 98.9888 85.792C98.8648 86.288 98.8028 86.7013 98.8028 87.032C98.8028 87.3627 98.9165 87.528 99.1438 87.528C99.4538 87.528 99.8361 87.3317 100.291 86.939C100.745 86.5463 101.2 86.1227 101.655 85.668C102.109 85.1927 102.523 84.7587 102.895 84.366C103.287 83.9733 103.556 83.777 103.701 83.777C103.99 83.777 104.135 84.1283 104.135 84.831C104.135 86.2777 103.422 87.6727 101.996 89.016C99.5985 90.4213 98.0691 91.124 97.4078 91.124C97.3458 91.124 97.3045 91.1137 97.2838 91.093C95.6305 91.093 94.8038 89.7703 94.8038 87.125C94.8038 85.9883 94.9071 84.9447 95.1138 83.994C95.3411 83.0433 95.5065 82.351 95.6098 81.917C95.7131 81.483 95.7648 81.0387 95.7648 80.584C95.7648 79.84 95.3308 79.468 94.4628 79.468C93.6155 79.468 92.7991 80.1087 92.0138 81.39C91.2491 82.6507 90.7325 83.963 90.4638 85.327V85.544C90.4638 86.2467 90.5671 86.97 90.7738 87.714C91.0011 88.458 91.1148 88.9747 91.1148 89.264C91.1148 89.9667 90.2365 90.659 88.4798 91.341C88.2111 91.4443 87.9735 91.496 87.7668 91.496C87.2501 91.496 86.8885 91.2273 86.6818 90.69C86.4958 90.1527 86.4028 89.3157 86.4028 88.179C86.4028 85.2443 86.5165 83.126 86.7438 81.824C87.0538 79.8813 87.7565 78.073 88.8518 76.399C89.2238 75.8203 89.6268 75.531 90.0608 75.531ZM109.811 87.621C111.423 87.621 112.984 86.9803 114.492 85.699C115.05 85.2237 115.505 84.7897 115.856 84.397C116.208 83.9837 116.476 83.777 116.662 83.777C116.952 83.777 117.096 84.0663 117.096 84.645C117.096 85.2237 116.941 85.8747 116.631 86.598C116.321 87.3007 115.805 87.993 115.081 88.675C113.304 90.349 110.865 91.186 107.765 91.186C105.306 91.186 103.632 90.2973 102.743 88.52C102.433 87.9 102.278 87.0113 102.278 85.854C102.278 84.6967 102.506 83.498 102.96 82.258C103.415 80.9973 104.014 79.9123 104.758 79.003C105.523 78.0937 106.401 77.391 107.393 76.895C108.385 76.3783 109.439 76.12 110.555 76.12C111.692 76.12 112.56 76.399 113.159 76.957C113.779 77.515 114.089 78.2383 114.089 79.127C114.089 80.0157 113.862 80.7493 113.407 81.328C112.973 81.886 112.405 82.3613 111.702 82.754C111 83.126 110.214 83.467 109.346 83.777C108.499 84.0663 107.662 84.397 106.835 84.769V85.544C106.856 86.288 107.166 86.815 107.765 87.125C108.365 87.435 109.047 87.6003 109.811 87.621ZM109.284 78.879C108.21 78.879 107.466 80.1293 107.052 82.63C107.486 82.3407 107.889 82.0823 108.261 81.855C108.654 81.6277 108.995 81.4107 109.284 81.204C109.904 80.7493 110.225 80.2327 110.245 79.654C110.245 79.1373 109.925 78.879 109.284 78.879Z" fill="#B93383"/>
</svg>
